<svg xmlns="http://www.w3.org/2000/svg" viewBox="0 0 576 512"><path d="M96 32v32H48C21.5 64 0 85.5 0 112v48h448v-48c0-26.5-21.5-48-48-48h-48V32c0-17.7-14.3-32-32-32s-32 14.3-32 32v32H160V32c0-17.7-14.3-32-32-32S96 14.3 96 32zm352 160H0v272c0 26.5 21.5 48 48 48h282.8c-45.2-31.9-74.8-84.5-74.8-144 0-97.2 78.8-176 176-176 5.4 0 10.7.2 16 .7v-.7zm128 176c0-79.5-64.5-144-144-144s-144 64.5-144 144 64.5 144 144 144 144-64.5 144-144zm-144-80c8.8 0 16 7.2 16 16v48h32c8.8 0 16 7.2 16 16s-7.2 16-16 16h-48c-8.8 0-16-7.2-16-16v-64c0-8.8 7.2-16 16-16z"></path></svg>