<svg xmlns="http://www.w3.org/2000/svg" width="150" height="27" viewBox="0 0 150 27" fill="none">
<g clip-path="url(#clip0_1_2)">
<path d="M34.6537 7.5369H30.8773V1.4822H31.8168V6.6726H34.6537V7.5369Z" fill="white"/>
<path d="M35.7426 1.616C35.7426 1.3015 35.9906 1.0623 36.3256 1.0623C36.6615 1.0623 36.9096 1.3016 36.9096 1.616C36.9096 1.9265 36.6616 2.1658 36.3256 2.1658C35.9906 2.1658 35.7426 1.9265 35.7426 1.616ZM35.8774 2.9676H36.7749V7.5369H35.8774V2.9676Z" fill="white"/>
<path d="M39.8969 2.8797C40.9252 2.8797 41.5971 3.3582 41.685 4.1639H40.8207C40.7367 3.828 40.4096 3.6141 39.8969 3.6141C39.394 3.6141 39.0121 3.8534 39.0121 4.2098C39.0121 4.4823 39.2426 4.6541 39.7377 4.7674L40.4975 4.9442C41.3657 5.1454 41.7729 5.5184 41.7729 6.1903C41.7729 7.0507 40.9711 7.6249 39.8803 7.6249C38.7934 7.6249 38.0844 7.1347 38.0053 6.3241H38.9067C39.02 6.6766 39.3559 6.8954 39.9018 6.8954C40.4643 6.8954 40.8627 6.6434 40.8627 6.2782C40.8627 6.0057 40.6488 5.829 40.1908 5.7206L39.394 5.5359C38.5249 5.3298 38.1225 4.9392 38.1225 4.2595C38.1225 3.45 38.8647 2.8797 39.8969 2.8797Z" fill="white"/>
<path d="M44.1713 1.8308V2.988H45.1615V3.7478H44.1713V6.0974C44.1713 6.5759 44.3686 6.7859 44.8168 6.7859C44.9555 6.7859 45.0356 6.7781 45.1615 6.7654V7.5164C45.014 7.5418 44.8461 7.5623 44.6703 7.5623C43.6674 7.5623 43.2689 7.2098 43.2689 6.3289V3.7478H42.5433V2.9881H43.2689V1.8308H44.1713Z" fill="white"/>
<path d="M50.1615 6.3035C49.9554 7.1219 49.226 7.6248 48.181 7.6248C46.8714 7.6248 46.0697 6.7273 46.0697 5.2674C46.0697 3.8065 46.8881 2.8797 48.1761 2.8797C49.4476 2.8797 50.2161 3.7479 50.2161 5.1834V5.4979H46.9886V5.5487C47.0179 6.3495 47.4837 6.8573 48.2054 6.8573C48.7513 6.8573 49.1243 6.66 49.2923 6.3036H50.1615V6.3035ZM46.9887 4.8308H49.2973C49.2758 4.113 48.8393 3.6472 48.1723 3.6472C47.5053 3.6472 47.0395 4.117 46.9887 4.8308Z" fill="white"/>
<path d="M51.4213 2.9676H52.2904V3.6932H52.3578C52.5795 3.1854 53.0326 2.8797 53.7211 2.8797C54.7406 2.8797 55.3031 3.492 55.3031 4.5789V7.5369H54.4008V4.8054C54.4008 4.071 54.0824 3.7058 53.4145 3.7058C52.7475 3.7058 52.3237 4.1511 52.3237 4.864V7.5369H51.4214V2.9676H51.4213Z" fill="white"/>
<path d="M58.9428 5.2498C58.9428 3.7771 59.7651 2.8797 61.1 2.8797C62.4301 2.8797 63.2523 3.7772 63.2523 5.2498C63.2523 6.7312 62.4339 7.6248 61.1 7.6248C59.7612 7.6248 58.9428 6.7312 58.9428 5.2498ZM62.3256 5.2498C62.3256 4.2596 61.8803 3.6805 61.1 3.6805C60.3148 3.6805 59.8744 4.2596 59.8744 5.2498C59.8744 6.2488 60.3148 6.824 61.1 6.824C61.8803 6.824 62.3256 6.2449 62.3256 5.2498Z" fill="white"/>
<path d="M64.4584 2.9676H65.3275V3.6932H65.3949C65.6166 3.1854 66.0697 2.8797 66.7582 2.8797C67.7777 2.8797 68.3402 3.492 68.3402 4.5789V7.5369H67.4379V4.8054C67.4379 4.071 67.1195 3.7058 66.4516 3.7058C65.7846 3.7058 65.3608 4.1511 65.3608 4.864V7.5369H64.4585V2.9676H64.4584Z" fill="white"/>
<path d="M33.0622 24V14.7263H33.1407L39.6663 24H41.4286V11.4111H39.5267V20.6936H39.4569L32.9313 11.4111H31.1603V24H33.0622ZM49.5582 21.3042C49.3052 22.1069 48.5113 22.6478 47.4382 22.6478C45.929 22.6478 44.9693 21.5921 44.9693 19.9956V19.8822H51.4513V19.2366C51.4513 16.4536 49.8635 14.6565 47.3161 14.6565C44.725 14.6565 43.0675 16.5758 43.0675 19.4547C43.0675 22.3511 44.6989 24.1745 47.3946 24.1745C49.4971 24.1745 51.0849 22.9793 51.3466 21.3042H49.5582ZM47.3161 16.1745C48.6334 16.1745 49.5233 17.1603 49.5669 18.5649H44.978C45.074 17.1777 45.9988 16.1745 47.3161 16.1745ZM53.413 12.6499V14.8222H52.0782V16.3141H53.413V21.5834C53.413 23.3544 54.1371 24.0611 55.9953 24.0611C56.4141 24.0611 56.8329 24.0262 57.0422 23.9738V22.482C56.9201 22.5082 56.6148 22.5256 56.4228 22.5256C55.6551 22.5256 55.3061 22.1679 55.3061 21.374V16.3141H57.051V14.8222H55.3061V12.6499H53.413ZM64.4041 21.3042C64.1511 22.1069 63.3572 22.6478 62.2842 22.6478C60.7749 22.6478 59.8152 21.5921 59.8152 19.9956V19.8822H66.2973V19.2366C66.2973 16.4536 64.7095 14.6565 62.162 14.6565C59.571 14.6565 57.9134 16.5758 57.9134 19.4547C57.9134 22.3511 59.5448 24.1745 62.2406 24.1745C64.3431 24.1745 65.9309 22.9793 66.1926 21.3042H64.4041ZM62.162 16.1745C63.4794 16.1745 64.3692 17.1603 64.4129 18.5649H59.824C59.9199 17.1777 60.8447 16.1745 62.162 16.1745ZM70.3963 24.157C71.6003 24.157 72.7606 23.5114 73.2927 22.4907H73.3364V24H75.1423V17.675C75.1423 15.8342 73.7202 14.6565 71.4956 14.6565C69.2273 14.6565 67.814 15.8779 67.7093 17.5354H69.489C69.6548 16.7154 70.3353 16.1919 71.4258 16.1919C72.5774 16.1919 73.2666 16.8026 73.2666 17.8233V18.53L70.754 18.6783C68.573 18.8004 67.3429 19.7863 67.3429 21.3915C67.3429 23.0403 68.5992 24.157 70.3963 24.157ZM70.9198 22.6652C69.9078 22.6652 69.2448 22.1418 69.2448 21.3391C69.2448 20.554 69.8816 20.0567 71.007 19.9782L73.2666 19.8386V20.5627C73.2666 21.7579 72.2371 22.6652 70.9198 22.6652ZM76.755 17.422C76.755 18.7568 77.6187 19.5943 79.3635 19.9956L80.8553 20.3446C81.8586 20.5714 82.1988 20.9204 82.1988 21.5136C82.1988 22.2639 81.5009 22.735 80.3667 22.735C79.2152 22.735 78.5609 22.2639 78.3864 21.3042H76.5194C76.6939 23.0491 78.0723 24.1745 80.3667 24.1745C82.5303 24.1745 84.0919 23.0229 84.0919 21.3479C84.0919 20.0218 83.3766 19.289 81.5009 18.8528L80.0091 18.5125C79.0145 18.2857 78.5958 17.8931 78.5958 17.3173C78.5958 16.5845 79.2762 16.0872 80.297 16.0872C81.3526 16.0872 82.0069 16.6456 82.1116 17.5354H83.8826C83.8215 15.843 82.4344 14.6565 80.297 14.6565C78.1857 14.6565 76.755 15.7819 76.755 17.422ZM91.5847 21.3042C91.3317 22.1069 90.5378 22.6478 89.4647 22.6478C87.9555 22.6478 86.9958 21.5921 86.9958 19.9956V19.8822H93.4778V19.2366C93.4778 16.4536 91.89 14.6565 89.3426 14.6565C86.7515 14.6565 85.094 16.5758 85.094 19.4547C85.094 22.3511 86.7254 24.1745 89.4211 24.1745C91.5236 24.1745 93.1114 22.9793 93.3731 21.3042H91.5847ZM89.3426 16.1745C90.6599 16.1745 91.5498 17.1603 91.5934 18.5649H87.0045C87.1005 17.1777 88.0253 16.1745 89.3426 16.1745ZM111.43 24V11.4111H109.161L105.096 21.4438H105.026L100.952 11.4111H98.6923V24H100.472V14.735H100.533L104.337 24H105.785L109.58 14.735H109.641V24H111.43ZM121.339 14.8222H119.454V20.1701C119.454 21.6009 118.634 22.5431 117.273 22.5431C115.974 22.5431 115.311 21.7928 115.311 20.3969V14.8222H113.426V20.7634C113.426 22.8659 114.647 24.1658 116.645 24.1658C118.05 24.1658 118.983 23.5463 119.489 22.4471H119.533V24H121.339V14.8222ZM122.986 17.422C122.986 18.7568 123.85 19.5943 125.595 19.9956L127.087 20.3446C128.09 20.5714 128.43 20.9204 128.43 21.5136C128.43 22.2639 127.732 22.735 126.598 22.735C125.447 22.735 124.792 22.2639 124.618 21.3042H122.751C122.925 23.0491 124.304 24.1745 126.598 24.1745C128.762 24.1745 130.323 23.0229 130.323 21.3479C130.323 20.0218 129.608 19.289 127.732 18.8528L126.241 18.5125C125.246 18.2857 124.827 17.8931 124.827 17.3173C124.827 16.5845 125.508 16.0872 126.528 16.0872C127.584 16.0872 128.238 16.6456 128.343 17.5354H130.114C130.053 15.843 128.666 14.6565 126.528 14.6565C124.417 14.6565 122.986 15.7819 122.986 17.422ZM132.739 13.3391C133.341 13.3391 133.821 12.8506 133.821 12.2573C133.821 11.6554 133.341 11.1756 132.739 11.1756C132.137 11.1756 131.648 11.6554 131.648 12.2573C131.648 12.8506 132.137 13.3391 132.739 13.3391ZM131.797 24H133.681V14.8222H131.797V24ZM143.433 17.9804C143.268 16.1745 141.828 14.6565 139.464 14.6565C136.855 14.6565 135.145 16.4973 135.145 19.4111C135.145 22.3773 136.855 24.1745 139.481 24.1745C141.688 24.1745 143.25 22.8484 143.451 20.8942H141.636C141.418 21.9586 140.659 22.5954 139.499 22.5954C138.033 22.5954 137.065 21.4264 137.065 19.4111C137.065 17.4395 138.024 16.2268 139.481 16.2268C140.711 16.2268 141.444 17.0033 141.636 17.9804H143.433Z" fill="white"/>
<path fill-rule="evenodd" clip-rule="evenodd" d="M13 26C20.1797 26 26 20.1797 26 13C26 5.8203 20.1797 0 13 0C5.8203 0 0 5.8203 0 13C0 20.1797 5.8203 26 13 26ZM16.4378 4.24361C15.9585 4.13344 15.4499 4.12657 14.9753 4.26338C14.5753 4.37334 14.2085 4.58553 13.8943 4.85421C13.6121 5.09797 13.3681 5.39113 13.204 5.72768C12.8999 6.33075 12.8565 7.05109 13.0604 7.69261C13.139 7.98985 13.2184 8.28666 13.2962 8.5839C12.2408 8.89145 11.2565 9.5218 10.6322 10.4387C10.1008 11.2069 9.85791 12.156 9.90131 13.0848C9.91547 13.5118 9.98679 13.9381 10.1298 14.3412C10.3824 15.0618 10.8613 15.7128 11.5097 16.1238C12.1888 16.5622 13.0391 16.711 13.8299 16.5534C14.5635 16.4148 15.2418 16.0117 15.7194 15.4387C16.2321 14.8307 16.5109 14.03 16.4816 13.2352C16.4502 13.052 16.4166 12.8693 16.3831 12.6865L16.382 12.6806C16.2933 12.3389 16.2025 11.9978 16.1116 11.6566C15.9977 11.2285 15.8837 10.8005 15.774 10.3714C16.0568 10.4378 16.3341 10.5349 16.5879 10.6775C16.8753 10.8467 17.1433 11.048 17.3942 11.2675C17.9614 11.7642 18.4055 12.4109 18.6214 13.1364C18.8823 14.0015 18.84 14.9377 18.596 15.8015C18.5133 16.1036 18.3781 16.3878 18.2316 16.6638C17.9393 17.2048 17.5561 17.6979 17.0957 18.1059C16.6017 18.5466 16.0207 18.8866 15.4009 19.1169C14.6961 19.3776 13.9437 19.4981 13.1937 19.5077C12.282 19.514 11.3706 19.2949 10.5609 18.8755C9.2162 18.1835 8.16145 16.9677 7.63097 15.5547C7.26371 14.5882 7.14044 13.5298 7.27896 12.505C7.4162 11.4695 7.82555 10.4726 8.45289 9.63799C9.15476 8.69752 10.1298 7.963 11.2294 7.55193C11.56 7.43231 11.808 7.11724 11.8469 6.7678C11.8939 6.42546 11.7385 6.06357 11.4558 5.86406C11.247 5.71028 10.9747 5.64993 10.7198 5.6946C10.6238 5.70979 10.5336 5.74552 10.4437 5.78115C10.4218 5.78985 10.3999 5.79854 10.3779 5.80693C9.28941 6.24355 8.29783 6.91987 7.49502 7.77465C6.51072 8.81564 5.81058 10.1229 5.4938 11.5204C5.23456 12.6538 5.22405 13.8425 5.45771 14.981C5.77449 16.5422 6.55775 18.0056 7.68317 19.1332C8.81564 20.2794 10.3078 21.073 11.9002 21.3361C12.675 21.4688 13.4686 21.4684 14.2474 21.3711C15.3756 21.2311 16.4819 20.864 17.4451 20.2556C18.7584 19.4345 19.7788 18.1676 20.3297 16.7226C20.5427 16.1292 20.6662 15.5049 20.7132 14.8769C20.7697 14.1157 20.6995 13.343 20.4828 12.6102C20.2826 11.9302 19.9555 11.2881 19.5241 10.7258C19.0157 10.0624 18.3746 9.50569 17.665 9.0667C16.935 8.62342 16.0862 8.39877 15.237 8.35517C15.1189 7.90974 15.0012 7.4643 14.8829 7.01887C14.832 6.80088 14.9104 6.56657 15.0644 6.40763C15.2289 6.24055 15.4424 6.09837 15.6851 6.09558C16.0298 6.08741 16.3594 6.23045 16.6457 6.41215C16.6996 6.44335 16.7469 6.48336 16.7942 6.52337C16.8406 6.56267 16.8871 6.60196 16.9397 6.63293C17.1283 6.74955 17.3583 6.79616 17.5778 6.76609C17.8525 6.73129 18.1074 6.56915 18.2574 6.33633C18.4292 6.07711 18.4603 5.73305 18.3439 5.44526C18.2687 5.25067 18.121 5.09604 17.9573 4.97169C17.5091 4.62719 16.9883 4.37441 16.4378 4.24361ZM11.8883 12.3252C11.9738 11.924 12.1723 11.5482 12.4554 11.2509C12.8172 10.8686 13.2932 10.6087 13.7931 10.4545C13.9301 10.976 14.0684 11.497 14.2066 12.018C14.2901 12.3326 14.3736 12.6472 14.4568 12.962C14.4989 13.1072 14.5236 13.2564 14.5461 13.4057C14.5296 14.0081 14.0468 14.5526 13.4551 14.6565C13.1353 14.719 12.7863 14.6612 12.5183 14.471C12.1729 14.2328 11.9646 13.838 11.8802 13.4345C11.811 13.0692 11.8115 12.6894 11.8883 12.3252Z" fill="white"/>
</g>
<defs>
<clipPath id="clip0_1_2">
<rect width="149.105" height="26.7547" fill="white"/>
</clipPath>
</defs>
</svg>