<svg xmlns="http://www.w3.org/2000/svg" width="150" height="27" viewBox="0 0 150 27" fill="none">
<g clip-path="url(#clip0_3_14)">
<path d="M34.6537 7.5369H30.8773V1.4822H31.8168V6.6726H34.6537V7.5369Z" fill="white"/>
<path d="M35.7426 1.616C35.7426 1.3015 35.9906 1.0623 36.3256 1.0623C36.6615 1.0623 36.9096 1.3016 36.9096 1.616C36.9096 1.9265 36.6616 2.1658 36.3256 2.1658C35.9906 2.1658 35.7426 1.9265 35.7426 1.616ZM35.8774 2.9676H36.7749V7.5369H35.8774V2.9676Z" fill="white"/>
<path d="M39.8969 2.8797C40.9252 2.8797 41.5971 3.3582 41.685 4.1639H40.8207C40.7367 3.828 40.4096 3.6141 39.8969 3.6141C39.394 3.6141 39.0121 3.8534 39.0121 4.2098C39.0121 4.4823 39.2426 4.6541 39.7377 4.7674L40.4975 4.9442C41.3657 5.1454 41.7729 5.5184 41.7729 6.1903C41.7729 7.0507 40.9711 7.6249 39.8803 7.6249C38.7934 7.6249 38.0844 7.1347 38.0053 6.3241H38.9067C39.02 6.6766 39.3559 6.8954 39.9018 6.8954C40.4643 6.8954 40.8627 6.6434 40.8627 6.2782C40.8627 6.0057 40.6488 5.829 40.1908 5.7206L39.394 5.5359C38.5249 5.3298 38.1225 4.9392 38.1225 4.2595C38.1225 3.45 38.8647 2.8797 39.8969 2.8797Z" fill="white"/>
<path d="M44.1713 1.8308V2.988H45.1615V3.7478H44.1713V6.0974C44.1713 6.5759 44.3686 6.7859 44.8168 6.7859C44.9555 6.7859 45.0356 6.7781 45.1615 6.7654V7.5164C45.014 7.5418 44.8461 7.5623 44.6703 7.5623C43.6674 7.5623 43.2689 7.2098 43.2689 6.3289V3.7478H42.5433V2.9881H43.2689V1.8308H44.1713Z" fill="white"/>
<path d="M50.1615 6.3035C49.9554 7.1219 49.226 7.6248 48.181 7.6248C46.8714 7.6248 46.0697 6.7273 46.0697 5.2674C46.0697 3.8065 46.8881 2.8797 48.1761 2.8797C49.4476 2.8797 50.2161 3.7479 50.2161 5.1834V5.4979H46.9886V5.5487C47.0179 6.3495 47.4837 6.8573 48.2054 6.8573C48.7513 6.8573 49.1243 6.66 49.2923 6.3036H50.1615V6.3035ZM46.9887 4.8308H49.2973C49.2758 4.113 48.8393 3.6472 48.1723 3.6472C47.5053 3.6472 47.0395 4.117 46.9887 4.8308Z" fill="white"/>
<path d="M51.4213 2.9676H52.2904V3.6932H52.3578C52.5795 3.1854 53.0326 2.8797 53.7211 2.8797C54.7406 2.8797 55.3031 3.492 55.3031 4.5789V7.5369H54.4008V4.8054C54.4008 4.071 54.0824 3.7058 53.4145 3.7058C52.7475 3.7058 52.3237 4.1511 52.3237 4.864V7.5369H51.4214V2.9676H51.4213Z" fill="white"/>
<path d="M58.9428 5.2498C58.9428 3.7771 59.7651 2.8797 61.1 2.8797C62.4301 2.8797 63.2523 3.7772 63.2523 5.2498C63.2523 6.7312 62.4339 7.6248 61.1 7.6248C59.7612 7.6248 58.9428 6.7312 58.9428 5.2498ZM62.3256 5.2498C62.3256 4.2596 61.8803 3.6805 61.1 3.6805C60.3148 3.6805 59.8744 4.2596 59.8744 5.2498C59.8744 6.2488 60.3148 6.824 61.1 6.824C61.8803 6.824 62.3256 6.2449 62.3256 5.2498Z" fill="white"/>
<path d="M64.4584 2.9676H65.3275V3.6932H65.3949C65.6166 3.1854 66.0697 2.8797 66.7582 2.8797C67.7777 2.8797 68.3402 3.492 68.3402 4.5789V7.5369H67.4379V4.8054C67.4379 4.071 67.1195 3.7058 66.4516 3.7058C65.7846 3.7058 65.3608 4.1511 65.3608 4.864V7.5369H64.4585V2.9676H64.4584Z" fill="white"/>
<path d="M30.5834 20.6027C30.7035 22.8075 32.5651 24.2059 35.3619 24.2059C38.2445 24.2059 40.0804 22.7389 40.0804 20.4054C40.0804 18.6037 39.0166 17.5657 36.4257 17.0166L35.0702 16.7335C33.4659 16.3903 32.8311 15.7898 32.8311 14.889C32.8311 13.7566 33.8949 13.0531 35.3448 13.0531C36.8461 13.0531 37.867 13.8166 37.9871 15.0606H39.8488C39.7887 12.8986 37.9957 11.4145 35.3705 11.4145C32.7367 11.4145 30.8751 12.8729 30.8751 14.9919C30.8751 16.7764 31.9989 17.926 34.4783 18.4493L35.8252 18.7324C37.481 19.0928 38.133 19.6933 38.133 20.6542C38.133 21.7609 37.0091 22.5673 35.4391 22.5673C33.792 22.5673 32.6252 21.8295 32.4536 20.6027H30.5834ZM46.239 14.8289C44.935 14.8289 43.8969 15.4895 43.365 16.5276H43.3307V14.9748H41.5376V26.9855H43.3907V22.5158H43.4336C43.9484 23.5196 44.9779 24.1544 46.2733 24.1544C48.5382 24.1544 50.0395 22.3442 50.0395 19.4874C50.0395 16.6306 48.5296 14.8289 46.239 14.8289ZM45.75 22.5844C44.3259 22.5844 43.3822 21.3662 43.3822 19.4874C43.3822 17.6257 44.3344 16.3903 45.75 16.3903C47.217 16.3903 48.135 17.6 48.135 19.4874C48.135 21.3834 47.217 22.5844 45.75 22.5844ZM55.2973 24.1716C57.8796 24.1716 59.5783 22.3957 59.5783 19.4874C59.5783 16.5877 57.871 14.8118 55.2973 14.8118C52.7236 14.8118 51.0163 16.5877 51.0163 19.4874C51.0163 22.3957 52.715 24.1716 55.2973 24.1716ZM55.2973 22.6445C53.8474 22.6445 52.9037 21.4949 52.9037 19.4874C52.9037 17.4885 53.8474 16.3389 55.2973 16.3389C56.7472 16.3389 57.6909 17.4885 57.6909 19.4874C57.6909 21.4949 56.7557 22.6445 55.2973 22.6445ZM61.4987 12.8386V14.9748H60.1861V16.4418H61.4987V21.6236C61.4987 23.3651 62.2108 24.0601 64.0382 24.0601C64.45 24.0601 64.8618 24.0257 65.0677 23.9743V22.5072C64.9475 22.533 64.6473 22.5501 64.4585 22.5501C63.7036 22.5501 63.3604 22.1984 63.3604 21.4177V16.4418H65.0762V14.9748H63.3604V12.8386H61.4987ZM67.5372 13.5163C68.1292 13.5163 68.601 13.0359 68.601 12.4525C68.601 11.8606 68.1292 11.3887 67.5372 11.3887C66.9452 11.3887 66.4648 11.8606 66.4648 12.4525C66.4648 13.0359 66.9452 13.5163 67.5372 13.5163ZM66.6107 24H68.4637V14.9748H66.6107V24ZM70.8475 24H72.7092V16.4418H74.5108V14.9919H72.6834V14.1426C72.6834 13.3448 73.0609 12.9415 73.8673 12.9415C74.1161 12.9415 74.3649 12.9587 74.5451 12.993V11.6204C74.3049 11.5775 73.8845 11.5346 73.507 11.5346C71.6711 11.5346 70.8475 12.3582 70.8475 14.1083V14.9919H69.6035V16.4418H70.8475V24ZM76.8173 27.363C78.6876 27.363 79.5798 26.6595 80.3519 24.4719L83.7321 14.9748H81.776L79.494 22.3185H79.4597L77.1776 14.9748H75.1701L78.4302 24.0086C78.4302 24.0172 78.2672 24.5491 78.2672 24.5662C77.9841 25.4928 77.5208 25.8531 76.6629 25.8531C76.5085 25.8531 76.1996 25.8531 76.0624 25.8188V27.3201C76.1996 27.3458 76.6629 27.363 76.8173 27.363ZM88.5082 11.6204V24H90.4299V19.7705H93.0894C95.5173 19.7705 97.2245 18.1062 97.2245 15.6869C97.2245 13.2761 95.5516 11.6204 93.1495 11.6204H88.5082ZM90.4299 13.2418H92.6433C94.3076 13.2418 95.2599 14.134 95.2599 15.6954C95.2599 17.2568 94.3076 18.1576 92.6347 18.1576H90.4299V13.2418ZM102.113 24.1716C104.696 24.1716 106.394 22.3957 106.394 19.4874C106.394 16.5877 104.687 14.8118 102.113 14.8118C99.5397 14.8118 97.8324 16.5877 97.8324 19.4874C97.8324 22.3957 99.5311 24.1716 102.113 24.1716ZM102.113 22.6445C100.664 22.6445 99.7198 21.4949 99.7198 19.4874C99.7198 17.4885 100.664 16.3389 102.113 16.3389C103.563 16.3389 104.507 17.4885 104.507 19.4874C104.507 21.4949 103.572 22.6445 102.113 22.6445ZM111.163 24.1544C112.476 24.1544 113.505 23.4938 114.037 22.4643H114.071V24H115.873V11.6204H114.011V16.4761H113.977C113.471 15.481 112.441 14.8289 111.146 14.8289C108.881 14.8289 107.371 16.6391 107.371 19.4874C107.371 22.3357 108.881 24.1544 111.163 24.1544ZM111.652 16.3903C113.076 16.3903 114.029 17.6171 114.029 19.4874C114.029 21.3748 113.076 22.5844 111.652 22.5844C110.185 22.5844 109.267 21.392 109.267 19.4874C109.267 17.5914 110.185 16.3903 111.652 16.3903ZM125.472 18.0804C125.309 16.3045 123.893 14.8118 121.568 14.8118C119.003 14.8118 117.322 16.622 117.322 19.4874C117.322 22.4043 119.003 24.1716 121.585 24.1716C123.756 24.1716 125.292 22.8676 125.489 20.9458H123.705C123.49 21.9925 122.744 22.6188 121.603 22.6188C120.161 22.6188 119.209 21.4692 119.209 19.4874C119.209 17.5485 120.153 16.356 121.585 16.356C122.795 16.356 123.516 17.1196 123.705 18.0804H125.472ZM129.391 24.1544C130.575 24.1544 131.716 23.5196 132.239 22.5158H132.282V24H134.058V17.7802C134.058 15.97 132.66 14.8118 130.472 14.8118C128.242 14.8118 126.852 16.0129 126.749 17.6429H128.499C128.662 16.8365 129.331 16.3217 130.404 16.3217C131.536 16.3217 132.214 16.9222 132.214 17.926V18.6209L129.743 18.7667C127.598 18.8869 126.389 19.8563 126.389 21.4348C126.389 23.0563 127.624 24.1544 129.391 24.1544ZM129.906 22.6874C128.911 22.6874 128.259 22.1727 128.259 21.3834C128.259 20.6113 128.885 20.1222 129.992 20.045L132.214 19.9078V20.6198C132.214 21.7952 131.201 22.6874 129.906 22.6874ZM135.644 17.5314C135.644 18.844 136.493 19.6676 138.209 20.0622L139.676 20.4054C140.663 20.6284 140.998 20.9716 140.998 21.555C140.998 22.2928 140.311 22.756 139.196 22.756C138.063 22.756 137.42 22.2928 137.248 21.3491H135.413C135.584 23.0649 136.94 24.1716 139.196 24.1716C141.324 24.1716 142.859 23.0391 142.859 21.392C142.859 20.0879 142.156 19.3673 140.311 18.9383L138.844 18.6037C137.866 18.3807 137.454 17.9946 137.454 17.4284C137.454 16.7078 138.124 16.2188 139.127 16.2188C140.165 16.2188 140.809 16.7678 140.912 17.6429H142.653C142.593 15.9785 141.229 14.8118 139.127 14.8118C137.051 14.8118 135.644 15.9185 135.644 17.5314ZM144.788 12.8386V14.9748H143.476V16.4418H144.788V21.6236C144.788 23.3651 145.5 24.0601 147.328 24.0601C147.739 24.0601 148.151 24.0257 148.357 23.9743V22.5072C148.237 22.533 147.937 22.5501 147.748 22.5501C146.993 22.5501 146.65 22.1984 146.65 21.4177V16.4418H148.366V14.9748H146.65V12.8386H144.788Z" fill="white"/>
<path fill-rule="evenodd" clip-rule="evenodd" d="M20.6898 11.5886C21.2662 11.9336 22.0131 11.742 22.3558 11.161C22.6984 10.581 22.5089 9.83063 21.931 9.48566C17.1068 6.60615 9.47327 6.33548 4.88124 7.73707C4.2384 7.93344 3.87609 8.61604 4.07076 9.26228C4.26542 9.90821 4.94473 10.2728 5.58709 10.0769C9.58737 8.85612 16.4994 9.08621 20.6898 11.5886ZM20.5526 15.2949C20.8455 14.8163 20.6956 14.1888 20.2192 13.8938C16.2066 11.4142 10.3372 10.7165 5.6155 12.1571C5.08056 12.321 4.77817 12.8892 4.93977 13.4282C5.10245 13.9661 5.66859 14.27 6.20462 14.1072C10.3378 12.8456 15.665 13.4711 19.1586 15.6305C19.635 15.9249 20.2588 15.7746 20.5526 15.2949ZM18.9619 18.8544C19.1955 18.4704 19.0752 17.9686 18.6932 17.7339C15.2667 15.6285 11.0188 15.1385 6.06677 16.2769C5.62978 16.377 5.35751 16.8139 5.45748 17.2524C5.55698 17.6907 5.99149 17.9656 6.42754 17.8651C10.9527 16.8256 14.7951 17.2494 17.8479 19.1255C18.2295 19.3603 18.7284 19.2395 18.9619 18.8544ZM13.0001 0C20.1799 0 26 5.85236 26 13.0718C26 20.2917 20.1799 26.1439 13.0001 26.1439C5.82041 26.1439 0 20.2917 0 13.0718C0 5.85236 5.82041 0 13.0001 0Z" fill="white"/>
</g>
<defs>
<clipPath id="clip0_3_14">
<rect width="149.105" height="26.7547" fill="white"/>
</clipPath>
</defs>
</svg>